PathFileType	4	(X/Y/Z)	Patient4_TMGait_0pt4_02_left_20.trc.trc
DataRate	CameraRate	NumFrames	NumMarkers	Units	OrigDataRate	OrigDataStartFrame	OrigNumFrames
71.428571428572	71.428571428572	6	33	mm	71.428571428572	124	       141
Frame#	Time	Sacral			L.Shoulder			Chest			R.Shoulder			Neck			R.ASIS			L.ASIS			R.Thigh.Superior			R.Thigh.Lateral			R.Thigh.Inferior			R.Patella			L.Thigh.Superior			L.Thigh.Lateral			L.Thigh.Inferior			L.Patella			L.Shank.Superior			L.Shank.Lateral			L.Shank.Inferior			R.Shank.Superior			R.Shank.Lateral			R.Shank.Inferior			R.Heel			R.Midfoot.Superior			R.Midfoot.Lateral			R.Toe			L.Heel			L.Midfoot.Lateral			L.Midfoot.Superior			L.Toe			L.Elbow			L.Wrist			R.Elbow			R.Wrist			
		X1	Y1	Z1	X2	Y2	Z2	X3	Y3	Z3	X4	Y4	Z4	X5	Y5	Z5	X6	Y6	Z6	X7	Y7	Z7	X8	Y8	Z8	X9	Y9	Z9	X10	Y10	Z10	X11	Y11	Z11	X12	Y12	Z12	X13	Y13	Z13	X14	Y14	Z14	X15	Y15	Z15	X16	Y16	Z16	X17	Y17	Z17	X18	Y18	Z18	X19	Y19	Z19	X20	Y20	Z20	X21	Y21	Z21	X22	Y22	Z22	X23	Y23	Z23	X24	Y24	Z24	X25	Y25	Z25	X26	Y26	Z26	X27	Y27	Z27	X28	Y28	Z28	X29	Y29	Z29	X30	Y30	Z30	X31	Y31	Z31	X32	Y32	Z32	X33	Y33	Z33	

124	28.502000000000	886.360104184404	995.956809104043	514.494106760696	1021.536504252777	1431.388140171003	325.128430285986	1150.315384432609	1364.725307570195	467.406534579478	1091.824607907791	1431.445219798792	653.329663998583	1026.834736384886	1489.594378898142	483.562183486943	1126.240377004775	934.741419244116	605.800634180135	1084.953857060233	959.211306655087	334.077019749984	1128.226749489318	723.103683894107	572.990847489955	1030.551841368571	623.818719582587	638.464981577578	1087.099136744310	562.460484183501	553.095677134380	1068.401582068700	475.698155373364	556.084490074006	1162.493828311458	768.836973524907	359.494626737314	1104.484014184486	638.270341329888	290.341953375249	1208.087929143111	578.758529078817	347.790064274512	1228.561909494837	511.011242184514	346.926474127232	1209.381176593078	437.585094483539	337.615412788715	1134.515243068406	311.629669533601	289.186411314060	1215.547130477338	207.594801856384	343.682518914782	1027.829141138570	390.955496755286	563.683578263960	946.088923700133	297.808129570561	631.230177131160	965.465297276820	200.070774984545	561.460057381551	810.122125083939	44.428071883118	538.880720118198	984.216721376801	95.794231560859	562.583276715550	897.887134327449	37.239196404695	607.898715970613	1105.205054755837	41.685358906980	583.208107731255	1117.735880274521	41.768694280082	384.481216075423	1190.347360989879	38.460859401661	303.116110019204	1271.099653584337	104.345155051640	325.295467433250	1400.108425519500	57.816681181528	296.114805799119	889.199407171140	1101.819007429766	239.178698289750	871.958032494481	840.172607636800	250.456780773460	1248.563639741743	1126.019054721351	760.430613312660	1461.569657164556	1207.047580579146	654.287410455167	
125	28.516000000000	887.567286464583	995.217779317928	511.883266129575	1021.565637362116	1430.561474674775	322.267466370625	1150.249070909742	1364.633821549220	464.981214911589	1090.880543568579	1431.286690500739	650.734609754510	1026.280058264098	1489.165207909251	480.476069511167	1127.508892017600	934.346154389505	604.000597299899	1086.788714982506	958.473529671762	332.322093364603	1128.988913145469	722.244001724900	571.823688445206	1030.259506806542	623.456041762292	636.847282781405	1086.942299827990	561.504388920046	551.971816009986	1067.548609714195	474.316883025672	554.898387837649	1163.741270027750	766.523447568387	358.794376749361	1103.991324424608	636.684718600212	290.382412369034	1206.806720322162	576.510779264555	348.774663230890	1225.738966230244	507.901305571170	348.472794294593	1205.886183866393	434.393170329937	338.779659383036	1129.163573652608	309.467546805395	290.248429535494	1207.980151699719	204.259567797603	345.857599690199	1025.871253126860	390.195643089066	562.658909985026	942.976444763634	298.188218872229	630.409884213428	961.273058766608	199.968823611398	561.084775469564	804.567185953784	45.205357017847	539.016691490381	978.865528929096	95.856519842561	562.603320971576	892.373579976068	37.452367091382	607.913734556879	1099.688884906863	41.318309050613	583.282686617001	1106.795448455077	40.004471989870	386.079076844537	1179.553261564736	36.680688072034	304.738880735678	1261.271695604146	100.883044960065	328.187773175012	1389.945084964891	52.674261064054	298.774057302423	893.242165051367	1099.218816032425	235.320683799131	881.295749840270	837.150890623809	245.463854303935	1245.086838663592	1124.074084957464	758.518897532300	1459.217427307992	1201.920175114901	651.986472287390	
126	28.530000000000	888.703011150084	994.799646139111	509.288321512879	1021.794817505936	1429.958858863410	319.328676859059	1150.332853182807	1364.689851982607	462.492663976303	1090.145077570905	1431.407478786675	648.036677536147	1025.928794940160	1488.982502835198	477.282844935583	1128.670268374589	934.106088479076	602.044815937178	1088.402143970721	958.080046956013	330.429152729006	1129.727393225454	721.572214514356	570.383575229589	1030.170147981055	623.194784357636	635.042990413807	1087.058537487188	560.710360269030	550.632770921918	1067.137974082264	472.942884457583	553.629361141383	1164.774876636930	764.694024889702	357.895236143284	1103.497551168270	635.684459455586	289.985762163814	1205.497497700151	574.832980680146	349.310535590932	1222.942214137887	505.560819804539	349.502630398240	1202.680477578133	432.031055771834	339.383265314274	1124.705870060573	307.948262394615	290.510767988243	1201.562017352739	201.912993040756	347.314485743541	1024.199770346483	389.510521484565	561.540913277263	940.052151866325	298.759955600639	629.498962456686	957.254043129760	200.014659547388	560.694716264868	799.033532427297	46.288549676279	539.167998089222	973.657089776051	95.999632419419	562.685773852647	886.891948359562	37.791355246181	607.929418937906	1094.223404828204	40.905435611166	583.360463341226	1097.698993704349	38.765743680289	386.970018864593	1170.643047415758	35.627063721663	305.695805239259	1252.900861009235	98.661274794592	330.256138773041	1381.417533202378	49.448370465261	300.771513519580	898.087180476798	1096.648439800196	231.160287041694	891.744129400299	834.253790150498	239.997097706217	1241.017995224177	1122.052821830508	756.606127943118	1456.870585560345	1195.285088949602	649.901640445337	
127	28.544000000000	889.751462542803	994.710559706284	506.726305289900	1022.181836124295	1429.597033947877	316.343608217029	1150.546732190357	1364.897344706484	459.946596281795	1089.643399415235	1431.819287719495	645.246741993827	1025.775679119085	1489.049682623395	474.020892837947	1129.681978979190	934.052625705766	599.934706149717	1089.762860961252	958.041077925282	328.372477630655	1130.432158752458	721.124765771245	568.679413046123	1030.334691040200	623.033628250731	633.081455599535	1087.525792684000	560.096740076934	549.104048407021	1067.295350577016	471.567779575930	552.352316149360	1165.631010519631	763.477404089680	356.734408761436	1103.097412246332	635.282961634469	289.137526976513	1204.252763629198	573.745485460499	349.292073700594	1220.277544187876	503.979356940311	349.931707574217	1199.816357879606	430.448504810501	339.427489498943	1121.071831340818	307.046663055581	290.033189687570	1196.171078668478	200.457066921987	348.092952112749	1022.910828485102	388.896371332095	560.373598493226	937.380077750506	299.549043432289	628.522126730848	953.462215560285	200.232530110220	560.313541845387	793.543050074141	47.756596193485	539.330618873566	968.620284791778	96.227469447726	562.827042914231	881.451659464729	38.301605380123	607.948713919183	1088.805856614033	40.457150823259	583.437172850242	1090.227086354260	38.009544642171	387.287523922029	1163.359713701687	35.148394120087	306.091913769534	1245.818272809199	97.501388316391	331.527987030900	1374.316372697979	47.833632612243	302.095145895233	903.703138418946	1094.165034735758	226.734509815647	903.242887376506	831.568212368223	234.117233881946	1236.370434330023	1120.022339772021	754.683182614526	1454.423887329312	1187.167606567710	647.981861748190	
128	28.558000000000	890.702882821671	994.921793784365	504.186554821235	1022.679800149154	1429.467463915737	313.333588217990	1150.858891322269	1365.246363400648	457.348503321252	1089.363518145751	1432.500677958694	642.377247624921	1025.796184205609	1489.345222239952	470.720960378239	1130.515637596046	934.198781315049	597.682382049744	1090.881984102100	958.329827671255	326.140089049344	1131.136520832880	720.920406996661	566.751392672570	1030.829841865111	622.955028208210	631.001734749320	1088.455063683210	559.665263145892	547.426901120020	1068.168930179223	470.176203846501	551.146873122857	1166.356685892416	762.900540308112	355.251365694661	1102.800469941223	635.405375076264	287.869668162614	1203.092640976108	573.166118713830	348.658086205338	1217.773493378773	503.049555292797	349.746374348491	1197.258201267836	429.512530593432	338.969394850307	1118.076132934367	306.665335660558	288.957973389441	1191.576386330569	199.716171437610	348.296513778396	1022.129955843457	388.340737401757	559.205992768840	935.052803359830	300.578400507176	627.506397897974	949.969881892142	200.645789344556	559.965763600522	788.133944330556	49.703223653075	539.499626449009	963.786687769418	96.541846702067	563.017218339818	876.069423046566	39.042775724484	607.974094042193	1083.426735259398	39.987911711973	583.507298894048	1084.026686653386	37.647723763073	387.186829395209	1157.323602786500	35.070099406121	306.061384514791	1239.742187700087	97.158074717374	332.111983667142	1368.317028107926	47.437428470096	302.814223129188	910.039555383535	1091.811773548743	222.078413373794	915.737047999183	829.167051756406	227.894126411781	1231.160262596223	1118.036061675915	752.746879274268	1451.730987707558	1177.610021210599	646.191094678538	
129	28.572000000000	891.549701891172	995.373939279728	501.636480883338	1023.246941196930	1429.538617555592	310.306698246008	1151.229983953428	1365.716022655287	454.704984803008	1089.255480117975	1433.401555333279	639.441860082514	1025.951989530433	1489.827041663013	467.402098928154	1131.156388754801	934.534909022933	595.309893064671	1091.804688666067	958.890089152232	323.742126736894	1131.919074988841	720.959805041050	564.658933868276	1031.761164128830	622.926439849033	628.844442081089	1089.987334994981	559.403351145625	545.646585780470	1069.922006836871	468.751395533540	550.077735095865	1166.993193468702	762.884493871054	353.394713382036	1102.519832946827	635.905408885194	286.255031468355	1201.964720781367	572.942866240092	347.405527592942	1215.391310042563	502.607987962855	349.005305175202	1194.904985414625	429.046892499302	338.107418480029	1115.475509439588	306.663555718190	287.472264165102	1187.501201173279	199.479699102891	348.066237342974	1022.009301169166	387.827429567233	558.082206533267	933.194622800040	301.870878263303	626.474677521767	946.869555363945	201.281017718685	559.671601104485	782.865594036439	52.242546315715	539.669555682891	959.194905283121	96.948537486428	563.245113598987	870.772355069851	40.093415393244	608.006374084761	1078.070762954314	39.513843859039	583.564621971660	1078.695558741028	37.571028332199	386.821842410975	1152.117387535129	35.225379670421	305.744712238125	1234.348272546867	97.367413708249	332.166190217660	1363.055977652858	47.851645899414	303.050098069963	917.035850024887	1089.617084866756	217.222452989224	929.180243086579	827.110310364445	221.404074773459	1225.401487239185	1116.128929339023	750.797378727127	1448.608680245857	1166.669386121305	644.517524457206	
